<svg width="114" height="20" viewBox="0 0 114 20" fill="none" xmlns="http://www.w3.org/2000/svg">
<path d="M2.4917 19V5.0957C2.24561 5.38965 1.90723 5.62891 1.47656 5.81348C1.0459 5.99121 0.63916 6.08008 0.256348 6.08008V3.19873C0.618652 3.14404 1.0083 3.02783 1.42529 2.8501C1.84229 2.66553 2.22852 2.41602 2.58398 2.10156C2.94629 1.78027 3.22314 1.39404 3.41455 0.942871H6.31641V19H2.4917ZM12.1406 19.2563C10.7529 19.2563 9.61816 18.9146 8.73633 18.231C7.86133 17.5405 7.42383 16.4844 7.42383 15.0625V12.376H11.1768V13.9243C11.1768 14.2456 11.1938 14.5566 11.228 14.8574C11.269 15.1582 11.3579 15.4043 11.4946 15.5957C11.6313 15.7871 11.8467 15.8828 12.1406 15.8828C12.5303 15.8828 12.7866 15.7529 12.9097 15.4932C13.0327 15.2266 13.0942 14.8882 13.0942 14.478V10.9302C13.0942 10.6362 13.0737 10.3457 13.0327 10.0586C12.9985 9.77148 12.9165 9.53223 12.7866 9.34082C12.6567 9.14941 12.4482 9.05371 12.1611 9.05371C11.4775 9.05371 11.1357 9.54932 11.1357 10.5405H7.82373V0.942871H16.4268V4.32666H11.2485V6.86963C11.4263 6.65088 11.6655 6.45947 11.9663 6.29541C12.2739 6.12451 12.6328 6.03906 13.043 6.03906C13.8633 6.03906 14.5298 6.19629 15.0425 6.51074C15.562 6.8252 15.9585 7.2627 16.2319 7.82324C16.5122 8.38379 16.7036 9.0332 16.8062 9.77148C16.9155 10.5098 16.9702 11.3027 16.9702 12.1504C16.9702 13.2373 16.9121 14.2183 16.7959 15.0933C16.6865 15.9614 16.4644 16.7065 16.1294 17.3286C15.8013 17.9507 15.3159 18.4292 14.6733 18.7642C14.0376 19.0923 13.1934 19.2563 12.1406 19.2563ZM22.5176 19.1641C20.9932 19.1641 19.814 18.7368 18.98 17.8823C18.1528 17.0278 17.7393 15.7974 17.7393 14.1909V6.04932C17.7393 4.354 18.1323 3.05518 18.9185 2.15283C19.7114 1.24365 20.9111 0.789062 22.5176 0.789062C24.1309 0.789062 25.3306 1.24365 26.1167 2.15283C26.9028 3.05518 27.2959 4.354 27.2959 6.04932V14.1909C27.2959 15.7974 26.8823 17.0278 26.0552 17.8823C25.228 18.7368 24.0488 19.1641 22.5176 19.1641ZM22.5176 15.8418C22.7979 15.8418 23.0166 15.7153 23.1738 15.4624C23.3311 15.2095 23.4097 14.9258 23.4097 14.6113V5.70068C23.4097 5.27686 23.3618 4.90771 23.2661 4.59326C23.1772 4.27197 22.9277 4.11133 22.5176 4.11133C22.1074 4.11133 21.8545 4.27197 21.7588 4.59326C21.6699 4.90771 21.6255 5.27686 21.6255 5.70068V14.6113C21.6255 14.9258 21.7041 15.2095 21.8613 15.4624C22.0254 15.7153 22.2441 15.8418 22.5176 15.8418ZM32.8945 19.1641C31.3701 19.1641 30.1909 18.7368 29.3569 17.8823C28.5298 17.0278 28.1162 15.7974 28.1162 14.1909V6.04932C28.1162 4.354 28.5093 3.05518 29.2954 2.15283C30.0884 1.24365 31.2881 0.789062 32.8945 0.789062C34.5078 0.789062 35.7075 1.24365 36.4937 2.15283C37.2798 3.05518 37.6729 4.354 37.6729 6.04932V14.1909C37.6729 15.7974 37.2593 17.0278 36.4321 17.8823C35.605 18.7368 34.4258 19.1641 32.8945 19.1641ZM32.8945 15.8418C33.1748 15.8418 33.3936 15.7153 33.5508 15.4624C33.708 15.2095 33.7866 14.9258 33.7866 14.6113V5.70068C33.7866 5.27686 33.7388 4.90771 33.6431 4.59326C33.5542 4.27197 33.3047 4.11133 32.8945 4.11133C32.4844 4.11133 32.2314 4.27197 32.1357 4.59326C32.0469 4.90771 32.0024 5.27686 32.0024 5.70068V14.6113C32.0024 14.9258 32.0811 15.2095 32.2383 15.4624C32.4023 15.7153 32.6211 15.8418 32.8945 15.8418ZM43.7432 19V3.61914H47.4756V5.33154C47.6533 4.73682 47.9678 4.27197 48.4189 3.93701C48.8701 3.60205 49.4375 3.43457 50.1211 3.43457V6.50049C49.8203 6.50049 49.4614 6.53467 49.0444 6.60303C48.6274 6.66455 48.2617 6.75342 47.9473 6.86963C47.6328 6.979 47.4756 7.10205 47.4756 7.23877V19H43.7432ZM55.3301 19.1641C54.2363 19.1641 53.3647 18.959 52.7153 18.5488C52.0659 18.1387 51.6011 17.5474 51.3208 16.7749C51.0405 16.0024 50.9004 15.0728 50.9004 13.9858V7.80273C50.9004 6.37402 51.3105 5.29395 52.1309 4.5625C52.9512 3.82422 54.0791 3.45508 55.5146 3.45508C58.4678 3.45508 59.9443 4.9043 59.9443 7.80273V8.92041C59.9443 10.2739 59.9307 11.1831 59.9033 11.6479H54.5713V14.6216C54.5713 14.895 54.5884 15.165 54.6226 15.4316C54.6567 15.6914 54.7319 15.9067 54.8481 16.0776C54.9712 16.2485 55.166 16.334 55.4326 16.334C55.8154 16.334 56.0547 16.1699 56.1504 15.8418C56.2461 15.5068 56.2939 15.0728 56.2939 14.5396V13.063H59.9443V13.9346C59.9443 15.083 59.8008 16.0469 59.5137 16.8262C59.2334 17.5986 58.7549 18.1831 58.0781 18.5796C57.4082 18.9692 56.4922 19.1641 55.3301 19.1641ZM54.5508 9.82275H56.2939V7.75146C56.2939 7.19775 56.2256 6.80127 56.0889 6.56201C55.9521 6.31592 55.7471 6.19287 55.4736 6.19287C55.1797 6.19287 54.9507 6.30908 54.7866 6.5415C54.6294 6.77393 54.5508 7.17725 54.5508 7.75146V9.82275ZM65.9019 19.1641C64.1792 19.1641 62.9556 18.7231 62.231 17.8413C61.5132 16.9595 61.1543 15.6641 61.1543 13.9551V9.21777C61.1543 7.93262 61.291 6.86279 61.5645 6.0083C61.8379 5.15381 62.3164 4.51465 63 4.09082C63.6836 3.66699 64.6338 3.45508 65.8506 3.45508C66.6982 3.45508 67.457 3.60547 68.127 3.90625C68.8037 4.20703 69.3369 4.64795 69.7266 5.229C70.1162 5.81006 70.311 6.521 70.311 7.36182V9.70996H66.5684V7.55664C66.5684 7.20117 66.5171 6.90381 66.4146 6.66455C66.312 6.41846 66.0898 6.29541 65.748 6.29541C65.1465 6.29541 64.8457 6.72266 64.8457 7.57715V15.0317C64.8457 15.3462 64.9141 15.6367 65.0508 15.9033C65.1875 16.1631 65.4131 16.293 65.7275 16.293C66.0488 16.293 66.271 16.1665 66.394 15.9136C66.5239 15.6538 66.5889 15.353 66.5889 15.0112V12.4272H70.311V15.1138C70.311 15.9614 70.1196 16.6895 69.7368 17.2979C69.3608 17.8994 68.8413 18.3608 68.1782 18.6821C67.5151 19.0034 66.7563 19.1641 65.9019 19.1641ZM75.8994 19.1641C74.8057 19.1641 73.9341 18.959 73.2847 18.5488C72.6353 18.1387 72.1704 17.5474 71.8901 16.7749C71.6099 16.0024 71.4697 15.0728 71.4697 13.9858V7.80273C71.4697 6.37402 71.8799 5.29395 72.7002 4.5625C73.5205 3.82422 74.6484 3.45508 76.084 3.45508C79.0371 3.45508 80.5137 4.9043 80.5137 7.80273V8.92041C80.5137 10.2739 80.5 11.1831 80.4727 11.6479H75.1406V14.6216C75.1406 14.895 75.1577 15.165 75.1919 15.4316C75.2261 15.6914 75.3013 15.9067 75.4175 16.0776C75.5405 16.2485 75.7354 16.334 76.002 16.334C76.3848 16.334 76.624 16.1699 76.7197 15.8418C76.8154 15.5068 76.8633 15.0728 76.8633 14.5396V13.063H80.5137V13.9346C80.5137 15.083 80.3701 16.0469 80.083 16.8262C79.8027 17.5986 79.3242 18.1831 78.6475 18.5796C77.9775 18.9692 77.0615 19.1641 75.8994 19.1641ZM75.1201 9.82275H76.8633V7.75146C76.8633 7.19775 76.7949 6.80127 76.6582 6.56201C76.5215 6.31592 76.3164 6.19287 76.043 6.19287C75.749 6.19287 75.52 6.30908 75.356 6.5415C75.1987 6.77393 75.1201 7.17725 75.1201 7.75146V9.82275ZM85.0049 19.1641C84.0137 19.1641 83.3438 18.9556 82.9951 18.5386C82.6533 18.1147 82.4824 17.4688 82.4824 16.6006V7.01318H81.4468V4.21387H82.4824V0.953125H86.0508V4.21387H87.0864V7.01318H86.0508V15.7393C86.0508 15.9922 86.0918 16.1699 86.1738 16.2725C86.2559 16.375 86.4131 16.4263 86.6455 16.4263C86.8096 16.4263 86.9565 16.4126 87.0864 16.3853V18.8872C87.0044 18.9146 86.748 18.9658 86.3174 19.041C85.8867 19.123 85.4492 19.1641 85.0049 19.1641ZM91.4238 19.1641C90.4326 19.1641 89.7627 18.9556 89.4141 18.5386C89.0723 18.1147 88.9014 17.4688 88.9014 16.6006V7.01318H87.8657V4.21387H88.9014V0.953125H92.4697V4.21387H93.5054V7.01318H92.4697V15.7393C92.4697 15.9922 92.5107 16.1699 92.5928 16.2725C92.6748 16.375 92.832 16.4263 93.0645 16.4263C93.2285 16.4263 93.3755 16.4126 93.5054 16.3853V18.8872C93.4233 18.9146 93.167 18.9658 92.7363 19.041C92.3057 19.123 91.8682 19.1641 91.4238 19.1641ZM98.9912 19.1641C97.8975 19.1641 97.0259 18.959 96.3765 18.5488C95.7271 18.1387 95.2622 17.5474 94.9819 16.7749C94.7017 16.0024 94.5615 15.0728 94.5615 13.9858V7.80273C94.5615 6.37402 94.9717 5.29395 95.792 4.5625C96.6123 3.82422 97.7402 3.45508 99.1758 3.45508C102.129 3.45508 103.605 4.9043 103.605 7.80273V8.92041C103.605 10.2739 103.592 11.1831 103.564 11.6479H98.2324V14.6216C98.2324 14.895 98.2495 15.165 98.2837 15.4316C98.3179 15.6914 98.3931 15.9067 98.5093 16.0776C98.6323 16.2485 98.8271 16.334 99.0938 16.334C99.4766 16.334 99.7158 16.1699 99.8115 15.8418C99.9072 15.5068 99.9551 15.0728 99.9551 14.5396V13.063H103.605V13.9346C103.605 15.083 103.462 16.0469 103.175 16.8262C102.895 17.5986 102.416 18.1831 101.739 18.5796C101.069 18.9692 100.153 19.1641 98.9912 19.1641ZM98.2119 9.82275H99.9551V7.75146C99.9551 7.19775 99.8867 6.80127 99.75 6.56201C99.6133 6.31592 99.4082 6.19287 99.1348 6.19287C98.8408 6.19287 98.6118 6.30908 98.4478 6.5415C98.2905 6.77393 98.2119 7.17725 98.2119 7.75146V9.82275ZM109.153 19.1641C106.118 19.1641 104.6 17.626 104.6 14.5498V13.3296H108.292V15.1343C108.292 15.4829 108.36 15.7563 108.497 15.9546C108.633 16.1528 108.852 16.252 109.153 16.252C109.686 16.252 109.953 15.8521 109.953 15.0522C109.953 14.3823 109.812 13.8833 109.532 13.5552C109.252 13.2202 108.91 12.8989 108.507 12.5913L106.548 11.084C105.933 10.6055 105.465 10.0996 105.144 9.56641C104.822 9.0332 104.662 8.2915 104.662 7.34131C104.662 6.45947 104.87 5.73145 105.287 5.15723C105.711 4.58301 106.268 4.15576 106.958 3.87549C107.656 3.59521 108.408 3.45508 109.214 3.45508C112.195 3.45508 113.685 4.94189 113.685 7.91553V8.20264H109.891V7.61816C109.891 7.31055 109.836 7.01318 109.727 6.72607C109.625 6.43896 109.419 6.29541 109.112 6.29541C108.592 6.29541 108.333 6.56885 108.333 7.11572C108.333 7.66943 108.551 8.10352 108.989 8.41797L111.265 10.0791C111.976 10.5918 112.571 11.2002 113.049 11.9043C113.535 12.6084 113.777 13.5449 113.777 14.7139C113.777 16.1631 113.364 17.2671 112.537 18.0259C111.716 18.7847 110.588 19.1641 109.153 19.1641Z" fill="#1B1B1B"/>
</svg>
